<?xml version="1.0" encoding="UTF-8"?>
<svg id="Layer_2" data-name="Layer 2" xmlns="http://www.w3.org/2000/svg" viewBox="0 0 35.25 31.32">
  <defs>
    <style>
      .cls-1 {
        fill: #fff;
      }
    </style>
  </defs>
  <g id="Ebene_1" data-name="Ebene 1">
    <path class="cls-1" d="m17.61,13.9c-1.6-3.1-5.94-8.89-9.98-11.74C3.76-.57,2.28-.1,1.32.34.2.85,0,2.57,0,3.58s.55,8.3.92,9.51c1.2,4.02,5.45,5.38,9.37,4.94.2-.03.4-.06.61-.08-.2.03-.41.06-.61.08-5.74.85-10.85,2.94-4.15,10.39,7.36,7.62,10.09-1.63,11.49-6.33,1.4,4.69,3.01,13.61,11.35,6.33,6.27-6.33,1.72-9.54-4.02-10.39-.2-.02-.41-.05-.61-.08.21.03.41.05.61.08,3.92.44,8.18-.92,9.37-4.94.36-1.22.92-8.5.92-9.51s-.2-2.73-1.32-3.24c-.97-.44-2.44-.91-6.31,1.82-4.07,2.86-8.41,8.64-10.01,11.74Z"/>
  </g>
</svg>