<?xml version="1.0" encoding="UTF-8"?>
<svg id="Layer_2" data-name="Layer 2" xmlns="http://www.w3.org/2000/svg" viewBox="0 0 28.95 28.97">
  <defs>
    <style>
      .cls-1 {
        fill: #fff;
        fill-rule: evenodd;
      }
    </style>
  </defs>
  <g id="logos">
    <path class="cls-1" d="m28.94,14.47c0,3.5-1.26,6.88-3.56,9.53-2.3,2.64-5.47,4.36-8.94,4.84-3.47.48-6.99-.31-9.92-2.22-2.93-1.91-5.07-4.82-6.02-8.19l5.56,2.3c.2,1,.76,1.9,1.58,2.51.82.61,1.84.89,2.85.79,1.02-.1,1.96-.58,2.64-1.34.68-.76,1.06-1.75,1.05-2.77v-.19l4.94-3.52h.13c1.08,0,2.14-.32,3.04-.92.9-.6,1.6-1.46,2.01-2.46.41-1,.52-2.1.31-3.16-.21-1.06-.73-2.04-1.5-2.8-.77-.77-1.74-1.29-2.8-1.5-1.06-.21-2.16-.1-3.16.31-1,.41-1.85,1.12-2.46,2.01-.6.9-.92,1.96-.92,3.04v.07l-3.46,5.01h-.23c-.82,0-1.63.25-2.31.71L0,13.3c.31-3.73,2.04-7.19,4.85-9.67C7.65,1.16,11.3-.14,15.03.01c3.74.15,7.27,1.74,9.86,4.43,2.59,2.69,4.05,6.28,4.05,10.02h0Z"/>
    <path class="cls-1" d="m12.91,21.08c-.23.55-.61,1.02-1.1,1.36-.49.34-1.07.52-1.66.54-.59.02-1.18-.14-1.69-.45-.51-.31-.91-.76-1.17-1.3l1.8.74c.27.11.57.17.87.17.3,0,.59-.06.87-.17.28-.11.53-.28.74-.49.21-.21.38-.46.49-.73.11-.27.17-.57.17-.87,0-.3-.06-.59-.17-.87-.11-.28-.28-.53-.49-.74-.21-.21-.46-.38-.73-.49l-1.84-.76c.56-.21,1.17-.26,1.76-.12.59.13,1.12.43,1.54.86.42.43.7.98.81,1.57.11.59.05,1.2-.18,1.76h-.01Z"/>
    <path class="cls-1" d="m21.8,8.15c-.68-.68-1.61-1.07-2.58-1.07-.72,0-1.43.21-2.02.61-.6.4-1.07.97-1.34,1.64-.28.67-.35,1.4-.21,2.11.14.71.49,1.36,1,1.87.51.51,1.16.86,1.87,1,.71.14,1.44.07,2.11-.21.67-.28,1.23-.74,1.64-1.34s.61-1.3.61-2.02c0-.97-.39-1.89-1.07-2.58Zm-.64,4.5c-.51.51-1.21.8-1.93.8h0c-.54,0-1.07-.16-1.52-.46-.45-.3-.8-.73-1.01-1.23-.21-.5-.26-1.05-.16-1.58s.37-1.02.75-1.4.87-.64,1.4-.75c.53-.11,1.08-.05,1.58.16.5.21.93.56,1.23,1.01.3.45.46.98.46,1.52,0,.72-.29,1.42-.8,1.93Z"/>
  </g>
</svg>